<?xml version="1.0" encoding="UTF-8"?>
<svg id="Laag_2" xmlns="http://www.w3.org/2000/svg" viewBox="0 0 1756.18 327.51">
  <defs>
    <style>
      .cls-1 {
        fill: #1d1d1b;
      }
    </style>
  </defs>
  <g id="Laag_1-2" data-name="Laag_1">
    <path class="cls-1" d="M131.95.92c23.91,0,40.05,18.18,40.05,43.86v72.12h-23.31V50.52c0-18.26-7.94-28.69-22.06-28.69-15.03,0-26.59,13.76-26.59,33.07v62.01h-22.77V50.52c0-18.26-7.88-28.69-22.09-28.69-15.08,0-26.71,13.76-26.71,33.07v62.01H5.16V3.5h16.52l4.01,14.65C34.2,7.52,47.14.92,60.92.92c15.37,0,27.55,7.55,34.02,19.86C103.19,8.58,116.98.92,131.95.92h0Z"/>
    <path class="cls-1" d="M255.91,119.66c-34.68,0-60.63-25.38-60.63-59.46S221.22.74,255.91.74s60.63,25.32,60.63,59.46-26.01,59.46-60.63,59.46h0ZM292.81,60.2c0-21.71-15.44-37.2-36.9-37.2s-36.9,15.5-36.9,37.2,15.44,37.2,36.9,37.2,36.9-15.5,36.9-37.2Z"/>
    <path class="cls-1" d="M405.88,2.87v22.02h-12.31c-19.28,0-28.9,11-28.9,31.54v60.47h-23.31V3.5h15.77l3.94,15.48c8.11-10.76,19.24-16.11,34.73-16.11h10.08Z"/>
    <path class="cls-1" d="M488.62,2.87v22.02h-12.31c-19.28,0-28.9,11-28.9,31.54v60.47h-23.31V3.5h15.77l3.94,15.48c8.11-10.76,19.24-16.11,34.73-16.11h10.08Z"/>
    <path class="cls-1" d="M611.43,60.47c0,2.55-.21,5.1-.48,7.65h-92.04c2.91,18.38,16.14,29.68,34.71,29.68,13.55,0,24.52-6.26,30.51-16.6h24.54c-9.03,23.94-29.73,38.47-55.05,38.47-33.15,0-58.26-25.59-58.26-59.46S520.41.74,553.62.74s57.81,26.73,57.81,59.73h0ZM553.62,21.79c-17.54,0-30.31,10.58-34.13,27.4h68.57c-4.18-17.22-17.17-27.39-34.44-27.39h0Z"/>
    <path class="cls-1" d="M627.64,80.9h22.77c.6,11.99,10.67,18.26,24.34,18.26,12.52,0,22.15-5.3,22.15-14.78,0-10.76-12.17-13.22-26.05-15.56-18.9-3.24-41.16-7.53-41.16-33.81,0-20.34,17.58-34.27,43.96-34.27s43.45,14.34,43.9,36.34h-22.08c-.45-10.79-8.66-16.58-22.36-16.58-12.89,0-20.86,5.49-20.86,13.76,0,10.01,11.57,11.99,25.25,14.24,19.17,3.21,42.45,6.9,42.45,34.86,0,22.02-18.36,36.31-46,36.31s-45.7-15.24-46.29-38.77Z"/>
    <path class="cls-1" d="M827.77,116.9c-2.1-2.36-4.14-4.65-6.11-6.87-8.69,5.68-19.31,8.82-31.29,8.82-21.58,0-36.1-13-36.1-32.93,0-16.06,9.39-25.65,20.27-32.75-8.79-12.67-10.75-19.28-10.75-25.76,0-16.56,13.05-27.41,32.52-27.41s32.2,10.94,32.2,27.29c0,15.43-12.39,23.81-25.06,31.14,5.03,6.31,11.04,13.47,17.96,21.52,2.54-5.03,4.17-10.94,4.66-17.51h20.22c-.53,13.25-4.31,24.79-10.65,33.93,5.58,6.39,11.58,13.23,17.96,20.52h-25.84ZM807.9,94.36c-8.71-10.02-15.74-18.37-21.4-25.42-5.74,4.43-9.71,9.48-9.71,16.21,0,7.86,6.32,13.05,15.84,13.05,5.6,0,10.76-1.35,15.26-3.84ZM785.22,27.55c0,3.62,2.39,8.81,6.95,15.68,8.55-4.73,15.2-9.2,15.2-15.8,0-5.92-4.4-9.94-11.05-9.94s-11.11,4.05-11.11,10.06Z"/>
    <path class="cls-1" d="M59.42,289.63c-33.78,0-59.42-25.71-59.42-59.57s25.59-59.33,59.48-59.33c28.02,0,49.92,17.16,56.22,43.18h-23.1c-5.97-13.04-18.4-20.93-33.18-20.93-20.41,0-35.7,16.13-35.7,37.14s15.5,37.26,35.7,37.26c14.84,0,26.86-8,33.03-21.8h23.52c-6.24,26.49-28.56,44.05-56.55,44.05h0Z"/>
    <path class="cls-1" d="M191.23,289.63c-34.68,0-60.62-25.38-60.62-59.45s25.95-59.45,60.62-59.45,60.62,25.32,60.62,59.46-26.01,59.45-60.62,59.45h0ZM228.13,230.17c0-21.7-15.44-37.2-36.9-37.2s-36.9,15.5-36.9,37.2,15.44,37.2,36.9,37.2,36.9-15.5,36.9-37.2Z"/>
    <path class="cls-1" d="M403.45,170.9c23.9,0,40.04,18.18,40.04,43.86v72.11h-23.31v-66.38c0-18.25-7.94-28.68-22.06-28.68-15.02,0-26.59,13.75-26.59,33.06v62h-22.77v-66.38c0-18.25-7.88-28.68-22.08-28.68-15.08,0-26.71,13.75-26.71,33.06v62h-23.31v-113.38h16.52l4.01,14.65c8.51-10.63,21.45-17.23,35.23-17.23,15.37,0,27.55,7.55,34.01,19.85,8.25-12.19,22.04-19.85,37-19.85h0Z"/>
    <path class="cls-1" d="M536.06,170.72c33.93,0,58.74,25.32,58.74,59.46s-24.81,59.51-58.74,59.51c-14.68,0-27.71-5.08-37.65-13.73v51.56h-23.31v-154.03h15.71l4.38,13.92c10.25-10.45,24.54-16.68,40.87-16.68h0ZM571.22,230.17c0-21.37-15.62-37.2-36.99-37.2s-37.14,15.98-37.14,37.2,15.77,37.2,37.14,37.2,36.99-15.83,36.99-37.2Z"/>
    <path class="cls-1" d="M732.66,173.42v113.38h-18.8l-2.27-13.79c-10.27,10.39-24.59,16.61-41.12,16.61-33.78,0-59.03-25.53-59.03-59.51s25.26-59.39,59.03-59.39c16.72,0,31.18,6.31,41.47,16.88l2.73-14.18h17.99ZM709.3,230.12c0-21.37-15.62-37.2-36.99-37.2s-37.14,15.98-37.14,37.2,15.77,37.2,37.14,37.2,36.99-15.83,36.99-37.2Z"/>
    <path class="cls-1" d="M825.93,170.91c26.51,0,43.07,19.76,43.07,47.69v68.27h-23.31v-63.53c0-20.59-8.96-31.53-26.01-31.53s-30.46,14.33-30.46,34.36v60.71h-23.31v-113.38h16.25l4.53,15.82c8.58-11.44,22.58-18.4,39.24-18.4h0Z"/>
    <path class="cls-1" d="M1002.46,173.48l-52.09,115.44c-12.81,28.51-24.09,38.59-47.2,38.59h-11.52v-20.99h9.72c15,0,19.61-4.38,27.92-22.52l2.54-5.34-49.37-105.17h25.35l36.03,79.06,33.81-79.06h24.81Z"/>
    <path class="cls-1" d="M882.46,96.79h120.5v20.11h-120.5v-20.11Z"/>
    <g>
      <path class="cls-1" d="M1172.92,36.77c0-21.36,15.29-36.77,36.47-36.77,16.24,0,29.15,9.43,33.49,24.34h-7.31c-4.09-10.85-13.79-17.35-26.18-17.35-16.95,0-29.19,12.38-29.19,29.77s12.21,29.71,29.19,29.71c12.72,0,22.58-6.91,26.6-18.46h7.28c-4.31,15.69-17.32,25.45-33.89,25.45-21.22,0-36.47-15.35-36.47-36.71Z"/>
      <path class="cls-1" d="M1282.24,43.51h-18.04v28.88h-7.14V1.09h26.67c13.08,0,22.72,8.89,22.72,21.3,0,10.24-6.76,18.14-16.63,20.44l17.52,29.56h-8.06l-17.04-28.88ZM1264.2,36.73h19.18c9.4,0,15.8-6.03,15.8-14.41s-6.43-14.44-15.8-14.44h-19.18v28.85Z"/>
      <path class="cls-1" d="M1363.19,65.53v6.85h-40.84V1.09h39.72v6.78h-32.58v24.35h29.93v6.64h-29.93v26.67h33.7Z"/>
      <path class="cls-1" d="M1421.16,54.17h-35.87l-7.55,18.22h-7.6l29.52-71.3h6.59l30.33,71.3h-7.74l-7.67-18.22ZM1387.99,47.6h30.44l-15.38-36.62-15.06,36.62Z"/>
      <path class="cls-1" d="M1485.7,7.8h-22.19v64.58h-7.14V7.8h-22.19V1.09h51.53v6.71Z"/>
      <path class="cls-1" d="M1498.04,1.09h7.14v71.3h-7.14V1.09Z"/>
      <path class="cls-1" d="M1581.75,1.09l-28.61,71.3h-6.52l-29.21-71.3h7.88l24.6,60.54,24.05-60.54h7.81Z"/>
      <path class="cls-1" d="M1635.13,65.53v6.85h-40.84V1.09h39.72v6.78h-32.58v24.35h29.93v6.64h-29.93v26.67h33.7Z"/>
      <path class="cls-1" d="M1252.7,178.39l-9.95-58.64-25.46,56.37h-2.03l-25.44-56.3-10.04,58.57h-7.28l12.19-71.3h6.8l24.69,55.39,24.82-55.39h6.95l12.02,71.3h-7.28Z"/>
      <path class="cls-1" d="M1317.78,160.17h-35.87l-7.55,18.22h-7.6l29.52-71.3h6.59l30.33,71.3h-7.74l-7.67-18.22ZM1284.61,153.6h30.44l-15.38-36.62-15.06,36.62Z"/>
      <path class="cls-1" d="M1370.55,149.51h-18.04v28.88h-7.14v-71.3h26.67c13.08,0,22.72,8.89,22.72,21.3,0,10.24-6.76,18.14-16.63,20.44l17.52,29.56h-8.06l-17.04-28.88ZM1352.5,142.73h19.18c9.4,0,15.8-6.03,15.8-14.41s-6.43-14.44-15.8-14.44h-19.18v28.85Z"/>
      <path class="cls-1" d="M1428.18,144.82h-10.39v33.57h-7.14v-71.3h7.14v31.01h10.36l24.4-31.01h9.12l-27.05,34.25,29.52,37.05h-9.19l-26.76-33.57Z"/>
      <path class="cls-1" d="M1515.15,171.53v6.85h-40.84v-71.3h39.72v6.78h-32.58v24.35h29.93v6.64h-29.93v26.67h33.7Z"/>
      <path class="cls-1" d="M1573.8,113.8h-22.19v64.58h-7.14v-64.58h-22.19v-6.71h51.53v6.71Z"/>
      <path class="cls-1" d="M1586.14,107.09h7.14v71.3h-7.14v-71.3Z"/>
      <path class="cls-1" d="M1669.47,107.09v71.3h-6.04l-42.89-58.76v58.76h-7v-71.3h6.47l42.46,58.28v-58.28h7Z"/>
      <path class="cls-1" d="M1756.18,143.62c-.53,21.07-15.07,35.86-35.44,35.86s-35.98-15.52-35.98-36.72,15.22-36.71,35.84-36.71c17,0,31.31,10.67,34.44,25.68h-7.35c-3.06-11.08-14-18.68-26.94-18.68-16.66,0-28.7,12.41-28.7,29.71s11.73,29.72,28.7,29.72c14.42,0,25.43-8.88,27.73-22.08h-30.57v-6.78h38.29Z"/>
      <path class="cls-1" d="M1220.82,266.17h-35.87l-7.55,18.22h-7.6l29.52-71.3h6.59l30.33,71.3h-7.74l-7.67-18.22ZM1187.65,259.6h30.44l-15.38-36.62-15.06,36.62Z"/>
      <path class="cls-1" d="M1312.52,249.62c-.53,21.07-15.07,35.86-35.44,35.86s-35.98-15.52-35.98-36.72,15.22-36.71,35.84-36.71c17,0,31.31,10.67,34.44,25.68h-7.35c-3.05-11.08-14-18.68-26.94-18.68-16.66,0-28.7,12.41-28.7,29.71s11.73,29.72,28.7,29.72c14.42,0,25.43-8.88,27.73-22.08h-30.57v-6.78h38.29Z"/>
      <path class="cls-1" d="M1368.28,277.53v6.85h-40.84v-71.3h39.72v6.78h-32.58v24.35h29.93v6.64h-29.93v26.67h33.7Z"/>
      <path class="cls-1" d="M1439.28,213.09v71.3h-6.04l-42.89-58.76v58.76h-7v-71.3h6.47l42.46,58.28v-58.28h7Z"/>
      <path class="cls-1" d="M1454.54,248.77c0-21.36,15.29-36.77,36.47-36.77,16.24,0,29.15,9.43,33.49,24.34h-7.31c-4.09-10.85-13.79-17.35-26.18-17.35-16.95,0-29.19,12.38-29.19,29.77s12.21,29.71,29.19,29.71c12.72,0,22.58-6.91,26.6-18.46h7.28c-4.31,15.69-17.31,25.45-33.89,25.45-21.21,0-36.47-15.35-36.47-36.71Z"/>
      <path class="cls-1" d="M1563.07,256.05v28.34h-7.35v-28.32l-26.46-42.97h7.84l22.34,36.21,22.49-36.21h7.84l-26.7,42.96Z"/>
    </g>
  </g>
</svg>